<?xml version="1.0" encoding="UTF-8"?>
<svg width="300" height="300" xmlns="http://www.w3.org/2000/svg">
  <!-- Background gradient -->
  <defs>
    <linearGradient id="bg-gradient" x1="0%" y1="0%" x2="100%" y2="100%">
      <stop offset="0%" stop-color="#4B0082" />
      <stop offset="100%" stop-color="#00CED1" />
    </linearGradient>
  </defs>
  
  <!-- Background -->
  <rect width="300" height="300" fill="url(#bg-gradient)" />
  
  <!-- Stars pattern -->
  <g fill="white" opacity="0.3">
    <circle cx="30" cy="30" r="2" />
    <circle cx="60" cy="50" r="1" />
    <circle cx="90" cy="20" r="1.5" />
    <circle cx="120" cy="40" r="1" />
    <circle cx="150" cy="25" r="2" />
    <circle cx="180" cy="45" r="1" />
    <circle cx="210" cy="15" r="1.5" />
    <circle cx="240" cy="35" r="1" />
    <circle cx="270" cy="25" r="2" />
    
    <circle cx="40" cy="80" r="1" />
    <circle cx="70" cy="100" r="1.5" />
    <circle cx="100" cy="70" r="1" />
    <circle cx="130" cy="90" r="2" />
    <circle cx="160" cy="75" r="1" />
    <circle cx="190" cy="95" r="1.5" />
    <circle cx="220" cy="65" r="1" />
    <circle cx="250" cy="85" r="2" />
    
    <circle cx="30" cy="130" r="1.5" />
    <circle cx="60" cy="150" r="1" />
    <circle cx="90" cy="120" r="2" />
    <circle cx="120" cy="140" r="1" />
    <circle cx="150" cy="125" r="1.5" />
    <circle cx="180" cy="145" r="1" />
    <circle cx="210" cy="115" r="2" />
    <circle cx="240" cy="135" r="1" />
    <circle cx="270" cy="125" r="1.5" />
    
    <circle cx="40" cy="180" r="1" />
    <circle cx="70" cy="200" r="2" />
    <circle cx="100" cy="170" r="1" />
    <circle cx="130" cy="190" r="1.5" />
    <circle cx="160" cy="175" r="1" />
    <circle cx="190" cy="195" r="2" />
    <circle cx="220" cy="165" r="1" />
    <circle cx="250" cy="185" r="1.5" />
    
    <circle cx="30" cy="230" r="2" />
    <circle cx="60" cy="250" r="1" />
    <circle cx="90" cy="220" r="1.5" />
    <circle cx="120" cy="240" r="1" />
    <circle cx="150" cy="225" r="2" />
    <circle cx="180" cy="245" r="1" />
    <circle cx="210" cy="215" r="1.5" />
    <circle cx="240" cy="235" r="1" />
    <circle cx="270" cy="225" r="2" />
    
    <circle cx="40" cy="280" r="1.5" />
    <circle cx="70" cy="260" r="1" />
    <circle cx="100" cy="270" r="2" />
    <circle cx="130" cy="250" r="1" />
    <circle cx="160" cy="275" r="1.5" />
    <circle cx="190" cy="255" r="1" />
    <circle cx="220" cy="265" r="2" />
    <circle cx="250" cy="245" r="1" />
  </g>
  
  <!-- Moon -->
  <circle cx="150" cy="150" r="60" fill="white" opacity="0.4" />
  <circle cx="180" cy="130" r="15" fill="#00CED1" opacity="0.3" />
  
  <!-- Text -->
  <text x="150" y="130" font-family="Arial" font-size="20" fill="white" text-anchor="middle" dominant-baseline="middle">ดาวนำทาง</text>
  <text x="150" y="160" font-family="Arial" font-size="24" fill="white" text-anchor="middle" dominant-baseline="middle">Quiet Night</text>
  <text x="150" y="190" font-family="Arial" font-size="16" fill="white" text-anchor="middle" dominant-baseline="middle">loserpop</text>
</svg>
